<mxfile host="app.diagrams.net" modified="2023-11-02T02:17:29.559Z" agent="Mozilla/5.0 (Windows NT 10.0; Win64; x64) AppleWebKit/537.36 (KHTML, like Gecko) Chrome/118.0.0.0 Safari/537.36 Edg/118.0.2088.76" version="21.6.8" etag="1K8OVbYB5IY0KL4Wq3Cw" type="github">
  <diagram name="페이지-1" id="nFBD9s6tWVsPTREDaRuK">
    <mxGraphModel>
      <root>
        <mxCell id="0" />
        <mxCell id="1" parent="0" />
      </root>
    </mxGraphModel>
  </diagram>
</mxfile>
